<?xml version="1.0" encoding="UTF-8" standalone="no"?>
<!DOCTYPE svg PUBLIC "-//W3C//DTD SVG 1.1//EN"
 "http://www.w3.org/Graphics/SVG/1.1/DTD/svg11.dtd">
<!-- Generated by graphviz version 2.40.1 (20161225.0304)
 -->
<!-- Title: %3 Pages: 1 -->
<svg width="596pt" height="260pt"
 viewBox="0.00 0.00 596.32 260.00" xmlns="http://www.w3.org/2000/svg" xmlns:xlink="http://www.w3.org/1999/xlink">
<g id="graph0" class="graph" transform="scale(1 1) rotate(0) translate(4 256)">
<title>%3</title>
<polygon fill="#ffffff" stroke="transparent" points="-4,4 -4,-256 592.3247,-256 592.3247,4 -4,4"/>
<!-- [root] local_file.hello -->
<g id="node1" class="node">
<title>[root] local_file.hello</title>
<polygon fill="none" stroke="#000000" points="376.7843,-108 278.7843,-108 278.7843,-72 376.7843,-72 376.7843,-108"/>
<text text-anchor="middle" x="327.7843" y="-86.3" font-family="Times,serif" font-size="14.00" fill="#000000">local_file.hello</text>
</g>
<!-- [root] provider.local -->
<g id="node2" class="node">
<title>[root] provider.local</title>
<polygon fill="none" stroke="#000000" points="327.7843,-36 243.1593,-18 327.7843,0 412.4093,-18 327.7843,-36"/>
<text text-anchor="middle" x="327.7843" y="-14.3" font-family="Times,serif" font-size="14.00" fill="#000000">provider.local</text>
</g>
<!-- [root] local_file.hello&#45;&gt;[root] provider.local -->
<g id="edge1" class="edge">
<title>[root] local_file.hello&#45;&gt;[root] provider.local</title>
<path fill="none" stroke="#000000" d="M327.7843,-71.8314C327.7843,-64.131 327.7843,-54.9743 327.7843,-46.4166"/>
<polygon fill="#000000" stroke="#000000" points="331.2844,-46.4132 327.7843,-36.4133 324.2844,-46.4133 331.2844,-46.4132"/>
</g>
<!-- [root] meta.count&#45;boundary (EachMode fixup) -->
<g id="node3" class="node">
<title>[root] meta.count&#45;boundary (EachMode fixup)</title>
<ellipse fill="none" stroke="#000000" cx="176.7843" cy="-162" rx="176.5689" ry="18"/>
<text text-anchor="middle" x="176.7843" y="-158.3" font-family="Times,serif" font-size="14.00" fill="#000000">[root] meta.count&#45;boundary (EachMode fixup)</text>
</g>
<!-- [root] meta.count&#45;boundary (EachMode fixup)&#45;&gt;[root] local_file.hello -->
<g id="edge2" class="edge">
<title>[root] meta.count&#45;boundary (EachMode fixup)&#45;&gt;[root] local_file.hello</title>
<path fill="none" stroke="#000000" d="M213.7231,-144.3868C233.878,-134.7765 259.0445,-122.7766 280.6066,-112.4953"/>
<polygon fill="#000000" stroke="#000000" points="282.3943,-115.5205 289.9143,-108.0572 279.3815,-109.202 282.3943,-115.5205"/>
</g>
<!-- [root] provider.local (close) -->
<g id="node4" class="node">
<title>[root] provider.local (close)</title>
<ellipse fill="none" stroke="#000000" cx="479.7843" cy="-162" rx="108.5808" ry="18"/>
<text text-anchor="middle" x="479.7843" y="-158.3" font-family="Times,serif" font-size="14.00" fill="#000000">[root] provider.local (close)</text>
</g>
<!-- [root] provider.local (close)&#45;&gt;[root] local_file.hello -->
<g id="edge3" class="edge">
<title>[root] provider.local (close)&#45;&gt;[root] local_file.hello</title>
<path fill="none" stroke="#000000" d="M443.7624,-144.937C423.2525,-135.2218 397.3122,-122.9343 375.1677,-112.4448"/>
<polygon fill="#000000" stroke="#000000" points="376.4722,-109.1899 365.9365,-108.0721 373.4755,-115.5161 376.4722,-109.1899"/>
</g>
<!-- [root] root -->
<g id="node5" class="node">
<title>[root] root</title>
<ellipse fill="none" stroke="#000000" cx="327.7843" cy="-234" rx="47.3916" ry="18"/>
<text text-anchor="middle" x="327.7843" y="-230.3" font-family="Times,serif" font-size="14.00" fill="#000000">[root] root</text>
</g>
<!-- [root] root&#45;&gt;[root] meta.count&#45;boundary (EachMode fixup) -->
<g id="edge4" class="edge">
<title>[root] root&#45;&gt;[root] meta.count&#45;boundary (EachMode fixup)</title>
<path fill="none" stroke="#000000" d="M297.9516,-219.7751C276.5358,-209.5636 247.2677,-195.608 222.862,-183.9708"/>
<polygon fill="#000000" stroke="#000000" points="224.3057,-180.7817 213.7729,-179.6369 221.2929,-187.1002 224.3057,-180.7817"/>
</g>
<!-- [root] root&#45;&gt;[root] provider.local (close) -->
<g id="edge5" class="edge">
<title>[root] root&#45;&gt;[root] provider.local (close)</title>
<path fill="none" stroke="#000000" d="M357.4523,-219.9468C379.3625,-209.5683 409.5804,-195.2545 434.5007,-183.4501"/>
<polygon fill="#000000" stroke="#000000" points="436.2249,-186.5063 443.7639,-179.0623 433.2282,-180.1801 436.2249,-186.5063"/>
</g>
</g>
</svg>
