<?xml version="1.0" encoding="UTF-8" standalone="no"?>
<!DOCTYPE svg PUBLIC "-//W3C//DTD SVG 1.1//EN"
 "http://www.w3.org/Graphics/SVG/1.1/DTD/svg11.dtd">
<!-- Generated by graphviz version 2.44.1 (20200629.0846)
 -->
<!-- Pages: 1 -->
<svg width="1856pt" height="404pt"
 viewBox="0.00 0.00 1856.19 404.00" xmlns="http://www.w3.org/2000/svg" xmlns:xlink="http://www.w3.org/1999/xlink">
<g id="graph0" class="graph" transform="scale(1 1) rotate(0) translate(4 400)">
<polygon fill="white" stroke="transparent" points="-4,4 -4,-400 1852.19,-400 1852.19,4 -4,4"/>
<!-- [root] aws_iam_user.user -->
<g id="node1" class="node">
<title>[root] aws_iam_user.user</title>
<polygon fill="none" stroke="black" points="1848.19,-180 1728.19,-180 1728.19,-144 1848.19,-144 1848.19,-180"/>
<text text-anchor="middle" x="1788.19" y="-158.3" font-family="Times,serif" font-size="14.00">aws_iam_user.user</text>
</g>
<!-- [root] provider.aws -->
<g id="node15" class="node">
<title>[root] provider.aws</title>
<polygon fill="none" stroke="black" points="1665.19,-36 1586.09,-18 1665.19,0 1744.28,-18 1665.19,-36"/>
<text text-anchor="middle" x="1665.19" y="-14.3" font-family="Times,serif" font-size="14.00">provider.aws</text>
</g>
<!-- [root] aws_iam_user.user&#45;&gt;[root] provider.aws -->
<g id="edge1" class="edge">
<title>[root] aws_iam_user.user&#45;&gt;[root] provider.aws</title>
<path fill="none" stroke="black" d="M1773.35,-143.87C1751.14,-118.22 1709.22,-69.83 1684.6,-41.41"/>
<polygon fill="black" stroke="black" points="1687.04,-38.88 1677.85,-33.61 1681.75,-43.46 1687.04,-38.88"/>
</g>
<!-- [root] var.user -->
<g id="node23" class="node">
<title>[root] var.user</title>
<polygon fill="none" stroke="black" points="1811.69,-108 1758.69,-108 1758.69,-72 1817.69,-72 1817.69,-102 1811.69,-108"/>
<polyline fill="none" stroke="black" points="1811.69,-108 1811.69,-102 "/>
<polyline fill="none" stroke="black" points="1817.69,-102 1811.69,-102 "/>
<text text-anchor="middle" x="1788.19" y="-86.3" font-family="Times,serif" font-size="14.00">var.user</text>
</g>
<!-- [root] aws_iam_user.user&#45;&gt;[root] var.user -->
<g id="edge2" class="edge">
<title>[root] aws_iam_user.user&#45;&gt;[root] var.user</title>
<path fill="none" stroke="black" d="M1788.19,-143.7C1788.19,-135.98 1788.19,-126.71 1788.19,-118.11"/>
<polygon fill="black" stroke="black" points="1791.69,-118.1 1788.19,-108.1 1784.69,-118.1 1791.69,-118.1"/>
</g>
<!-- [root] aws_instance.instance -->
<g id="node2" class="node">
<title>[root] aws_instance.instance</title>
<polygon fill="none" stroke="black" points="1501.69,-180 1364.69,-180 1364.69,-144 1501.69,-144 1501.69,-180"/>
<text text-anchor="middle" x="1433.19" y="-158.3" font-family="Times,serif" font-size="14.00">aws_instance.instance</text>
</g>
<!-- [root] aws_security_group.fw -->
<g id="node4" class="node">
<title>[root] aws_security_group.fw</title>
<polygon fill="none" stroke="black" points="1636.69,-108 1493.69,-108 1493.69,-72 1636.69,-72 1636.69,-108"/>
<text text-anchor="middle" x="1565.19" y="-86.3" font-family="Times,serif" font-size="14.00">aws_security_group.fw</text>
</g>
<!-- [root] aws_instance.instance&#45;&gt;[root] aws_security_group.fw -->
<g id="edge3" class="edge">
<title>[root] aws_instance.instance&#45;&gt;[root] aws_security_group.fw</title>
<path fill="none" stroke="black" d="M1465.48,-143.88C1483.06,-134.55 1505,-122.92 1523.82,-112.94"/>
<polygon fill="black" stroke="black" points="1525.58,-115.97 1532.77,-108.19 1522.3,-109.78 1525.58,-115.97"/>
</g>
<!-- [root] data.aws_ami.amazonlinux -->
<g id="node5" class="node">
<title>[root] data.aws_ami.amazonlinux</title>
<polygon fill="none" stroke="black" points="1294.19,-108 1128.19,-108 1128.19,-72 1294.19,-72 1294.19,-108"/>
<text text-anchor="middle" x="1211.19" y="-86.3" font-family="Times,serif" font-size="14.00">data.aws_ami.amazonlinux</text>
</g>
<!-- [root] aws_instance.instance&#45;&gt;[root] data.aws_ami.amazonlinux -->
<g id="edge4" class="edge">
<title>[root] aws_instance.instance&#45;&gt;[root] data.aws_ami.amazonlinux</title>
<path fill="none" stroke="black" d="M1379.16,-143.97C1347.74,-134.06 1307.96,-121.51 1275,-111.12"/>
<polygon fill="black" stroke="black" points="1276.04,-107.78 1265.45,-108.11 1273.94,-114.46 1276.04,-107.78"/>
</g>
<!-- [root] var.ohio_azs -->
<g id="node19" class="node">
<title>[root] var.ohio_azs</title>
<polygon fill="none" stroke="black" points="1469.69,-108 1390.69,-108 1390.69,-72 1475.69,-72 1475.69,-102 1469.69,-108"/>
<polyline fill="none" stroke="black" points="1469.69,-108 1469.69,-102 "/>
<polyline fill="none" stroke="black" points="1475.69,-102 1469.69,-102 "/>
<text text-anchor="middle" x="1433.19" y="-86.3" font-family="Times,serif" font-size="14.00">var.ohio_azs</text>
</g>
<!-- [root] aws_instance.instance&#45;&gt;[root] var.ohio_azs -->
<g id="edge5" class="edge">
<title>[root] aws_instance.instance&#45;&gt;[root] var.ohio_azs</title>
<path fill="none" stroke="black" d="M1433.19,-143.7C1433.19,-135.98 1433.19,-126.71 1433.19,-118.11"/>
<polygon fill="black" stroke="black" points="1436.69,-118.1 1433.19,-108.1 1429.69,-118.1 1436.69,-118.1"/>
</g>
<!-- [root] var.type -->
<g id="node22" class="node">
<title>[root] var.type</title>
<polygon fill="none" stroke="black" points="1366.19,-108 1312.19,-108 1312.19,-72 1372.19,-72 1372.19,-102 1366.19,-108"/>
<polyline fill="none" stroke="black" points="1366.19,-108 1366.19,-102 "/>
<polyline fill="none" stroke="black" points="1372.19,-102 1366.19,-102 "/>
<text text-anchor="middle" x="1342.19" y="-86.3" font-family="Times,serif" font-size="14.00">var.type</text>
</g>
<!-- [root] aws_instance.instance&#45;&gt;[root] var.type -->
<g id="edge6" class="edge">
<title>[root] aws_instance.instance&#45;&gt;[root] var.type</title>
<path fill="none" stroke="black" d="M1410.69,-143.7C1399.23,-134.88 1385.13,-124.03 1372.7,-114.47"/>
<polygon fill="black" stroke="black" points="1374.48,-111.43 1364.42,-108.1 1370.22,-116.98 1374.48,-111.43"/>
</g>
<!-- [root] aws_instance.instance2 -->
<g id="node3" class="node">
<title>[root] aws_instance.instance2</title>
<polygon fill="none" stroke="black" points="1346.69,-180 1203.69,-180 1203.69,-144 1346.69,-144 1346.69,-180"/>
<text text-anchor="middle" x="1275.19" y="-158.3" font-family="Times,serif" font-size="14.00">aws_instance.instance2</text>
</g>
<!-- [root] aws_instance.instance2&#45;&gt;[root] data.aws_ami.amazonlinux -->
<g id="edge7" class="edge">
<title>[root] aws_instance.instance2&#45;&gt;[root] data.aws_ami.amazonlinux</title>
<path fill="none" stroke="black" d="M1259.37,-143.7C1251.62,-135.22 1242.15,-124.86 1233.66,-115.58"/>
<polygon fill="black" stroke="black" points="1236.16,-113.12 1226.83,-108.1 1230.99,-117.85 1236.16,-113.12"/>
</g>
<!-- [root] aws_instance.instance2&#45;&gt;[root] var.ohio_azs -->
<g id="edge8" class="edge">
<title>[root] aws_instance.instance2&#45;&gt;[root] var.ohio_azs</title>
<path fill="none" stroke="black" d="M1313.84,-143.88C1335.44,-134.31 1362.54,-122.3 1385.45,-112.15"/>
<polygon fill="black" stroke="black" points="1386.94,-115.32 1394.66,-108.07 1384.1,-108.92 1386.94,-115.32"/>
</g>
<!-- [root] aws_instance.instance2&#45;&gt;[root] var.type -->
<g id="edge9" class="edge">
<title>[root] aws_instance.instance2&#45;&gt;[root] var.type</title>
<path fill="none" stroke="black" d="M1291.75,-143.7C1299.86,-135.22 1309.78,-124.86 1318.66,-115.58"/>
<polygon fill="black" stroke="black" points="1321.43,-117.75 1325.82,-108.1 1316.37,-112.91 1321.43,-117.75"/>
</g>
<!-- [root] local.ingress_config2 -->
<g id="node10" class="node">
<title>[root] local.ingress_config2</title>
<polygon fill="none" stroke="black" points="1562.19,-36 1436.19,-36 1436.19,0 1568.19,0 1568.19,-30 1562.19,-36"/>
<polyline fill="none" stroke="black" points="1562.19,-36 1562.19,-30 "/>
<polyline fill="none" stroke="black" points="1568.19,-30 1562.19,-30 "/>
<text text-anchor="middle" x="1502.19" y="-14.3" font-family="Times,serif" font-size="14.00">local.ingress_config2</text>
</g>
<!-- [root] aws_security_group.fw&#45;&gt;[root] local.ingress_config2 -->
<g id="edge10" class="edge">
<title>[root] aws_security_group.fw&#45;&gt;[root] local.ingress_config2</title>
<path fill="none" stroke="black" d="M1549.62,-71.7C1541.99,-63.22 1532.67,-52.86 1524.31,-43.58"/>
<polygon fill="black" stroke="black" points="1526.87,-41.2 1517.58,-36.1 1521.67,-45.88 1526.87,-41.2"/>
</g>
<!-- [root] aws_security_group.fw&#45;&gt;[root] provider.aws -->
<g id="edge11" class="edge">
<title>[root] aws_security_group.fw&#45;&gt;[root] provider.aws</title>
<path fill="none" stroke="black" d="M1589.65,-71.88C1604.34,-61.59 1623.06,-48.49 1638.19,-37.9"/>
<polygon fill="black" stroke="black" points="1640.44,-40.6 1646.62,-32 1636.42,-34.86 1640.44,-40.6"/>
</g>
<!-- [root] local.datafilter -->
<g id="node8" class="node">
<title>[root] local.datafilter</title>
<polygon fill="none" stroke="black" points="1252.69,-36 1163.69,-36 1163.69,0 1258.69,0 1258.69,-30 1252.69,-36"/>
<polyline fill="none" stroke="black" points="1252.69,-36 1252.69,-30 "/>
<polyline fill="none" stroke="black" points="1258.69,-30 1252.69,-30 "/>
<text text-anchor="middle" x="1211.19" y="-14.3" font-family="Times,serif" font-size="14.00">local.datafilter</text>
</g>
<!-- [root] data.aws_ami.amazonlinux&#45;&gt;[root] local.datafilter -->
<g id="edge12" class="edge">
<title>[root] data.aws_ami.amazonlinux&#45;&gt;[root] local.datafilter</title>
<path fill="none" stroke="black" d="M1211.19,-71.7C1211.19,-63.98 1211.19,-54.71 1211.19,-46.11"/>
<polygon fill="black" stroke="black" points="1214.69,-46.1 1211.19,-36.1 1207.69,-46.1 1214.69,-46.1"/>
</g>
<!-- [root] data.aws_ami.amazonlinux&#45;&gt;[root] provider.aws -->
<g id="edge13" class="edge">
<title>[root] data.aws_ami.amazonlinux&#45;&gt;[root] provider.aws</title>
<path fill="none" stroke="black" d="M1294.4,-73.42C1297.36,-72.93 1300.3,-72.46 1303.19,-72 1424.51,-52.83 1455.95,-55.66 1577.19,-36 1589.79,-33.96 1603.36,-31.48 1615.97,-29.05"/>
<polygon fill="black" stroke="black" points="1616.71,-32.47 1625.85,-27.12 1615.37,-25.6 1616.71,-32.47"/>
</g>
<!-- [root] data.aws_availability_zones.azs -->
<g id="node6" class="node">
<title>[root] data.aws_availability_zones.azs</title>
<polygon fill="none" stroke="black" points="1710.19,-180 1520.19,-180 1520.19,-144 1710.19,-144 1710.19,-180"/>
<text text-anchor="middle" x="1615.19" y="-158.3" font-family="Times,serif" font-size="14.00">data.aws_availability_zones.azs</text>
</g>
<!-- [root] data.aws_availability_zones.azs&#45;&gt;[root] provider.aws -->
<g id="edge14" class="edge">
<title>[root] data.aws_availability_zones.azs&#45;&gt;[root] provider.aws</title>
<path fill="none" stroke="black" d="M1627.3,-143.57C1633.75,-133.56 1641.33,-120.52 1646.19,-108 1653.98,-87.9 1658.86,-63.94 1661.73,-45.95"/>
<polygon fill="black" stroke="black" points="1665.22,-46.27 1663.22,-35.86 1658.29,-45.24 1665.22,-46.27"/>
</g>
<!-- [root] data.external.echo -->
<g id="node7" class="node">
<title>[root] data.external.echo</title>
<polygon fill="none" stroke="black" points="158.19,-180 42.19,-180 42.19,-144 158.19,-144 158.19,-180"/>
<text text-anchor="middle" x="100.19" y="-158.3" font-family="Times,serif" font-size="14.00">data.external.echo</text>
</g>
<!-- [root] provider.external -->
<g id="node16" class="node">
<title>[root] provider.external</title>
<polygon fill="none" stroke="black" points="100.19,-108 -0.19,-90 100.19,-72 200.56,-90 100.19,-108"/>
<text text-anchor="middle" x="100.19" y="-86.3" font-family="Times,serif" font-size="14.00">provider.external</text>
</g>
<!-- [root] data.external.echo&#45;&gt;[root] provider.external -->
<g id="edge15" class="edge">
<title>[root] data.external.echo&#45;&gt;[root] provider.external</title>
<path fill="none" stroke="black" d="M100.19,-143.7C100.19,-135.98 100.19,-126.71 100.19,-118.11"/>
<polygon fill="black" stroke="black" points="103.69,-118.1 100.19,-108.1 96.69,-118.1 103.69,-118.1"/>
</g>
<!-- [root] local.ingress_config -->
<g id="node9" class="node">
<title>[root] local.ingress_config</title>
<polygon fill="none" stroke="black" points="1200.69,-252 1081.69,-252 1081.69,-216 1206.69,-216 1206.69,-246 1200.69,-252"/>
<polyline fill="none" stroke="black" points="1200.69,-252 1200.69,-246 "/>
<polyline fill="none" stroke="black" points="1206.69,-246 1200.69,-246 "/>
<text text-anchor="middle" x="1144.19" y="-230.3" font-family="Times,serif" font-size="14.00">local.ingress_config</text>
</g>
<!-- [root] output.echo -->
<g id="node11" class="node">
<title>[root] output.echo</title>
<polygon fill="none" stroke="black" points="134.19,-252 60.19,-252 60.19,-216 140.19,-216 140.19,-246 134.19,-252"/>
<polyline fill="none" stroke="black" points="134.19,-252 134.19,-246 "/>
<polyline fill="none" stroke="black" points="140.19,-246 134.19,-246 "/>
<text text-anchor="middle" x="100.19" y="-230.3" font-family="Times,serif" font-size="14.00">output.echo</text>
</g>
<!-- [root] output.echo&#45;&gt;[root] data.external.echo -->
<g id="edge29" class="edge">
<title>[root] output.echo&#45;&gt;[root] data.external.echo</title>
<path fill="none" stroke="black" d="M100.19,-215.7C100.19,-207.98 100.19,-198.71 100.19,-190.11"/>
<polygon fill="black" stroke="black" points="103.69,-190.1 100.19,-180.1 96.69,-190.1 103.69,-190.1"/>
</g>
<!-- [root] output.echo_foo -->
<g id="node12" class="node">
<title>[root] output.echo_foo</title>
<polygon fill="none" stroke="black" points="888.69,-252 789.69,-252 789.69,-216 894.69,-216 894.69,-246 888.69,-252"/>
<polyline fill="none" stroke="black" points="888.69,-252 888.69,-246 "/>
<polyline fill="none" stroke="black" points="894.69,-246 888.69,-246 "/>
<text text-anchor="middle" x="842.19" y="-230.3" font-family="Times,serif" font-size="14.00">output.echo_foo</text>
</g>
<!-- [root] output.echo_foo&#45;&gt;[root] data.external.echo -->
<g id="edge30" class="edge">
<title>[root] output.echo_foo&#45;&gt;[root] data.external.echo</title>
<path fill="none" stroke="black" d="M789.58,-217.84C786.41,-217.16 783.27,-216.54 780.19,-216 558.65,-177.36 291.58,-166.88 168.45,-164.05"/>
<polygon fill="black" stroke="black" points="168.49,-160.55 158.41,-163.83 168.34,-167.54 168.49,-160.55"/>
</g>
<!-- [root] output.splat_example_id -->
<g id="node13" class="node">
<title>[root] output.splat_example_id</title>
<polygon fill="none" stroke="black" points="1057.69,-252 912.69,-252 912.69,-216 1063.69,-216 1063.69,-246 1057.69,-252"/>
<polyline fill="none" stroke="black" points="1057.69,-252 1057.69,-246 "/>
<polyline fill="none" stroke="black" points="1063.69,-246 1057.69,-246 "/>
<text text-anchor="middle" x="988.19" y="-230.3" font-family="Times,serif" font-size="14.00">output.splat_example_id</text>
</g>
<!-- [root] output.splat_example_id&#45;&gt;[root] aws_instance.instance2 -->
<g id="edge31" class="edge">
<title>[root] output.splat_example_id&#45;&gt;[root] aws_instance.instance2</title>
<path fill="none" stroke="black" d="M1058.03,-215.97C1099.44,-205.87 1152.07,-193.03 1195.15,-182.52"/>
<polygon fill="black" stroke="black" points="1196.15,-185.88 1205.03,-180.11 1194.49,-179.08 1196.15,-185.88"/>
</g>
<!-- [root] output.splat_example_public_ip -->
<g id="node14" class="node">
<title>[root] output.splat_example_public_ip</title>
<polygon fill="none" stroke="black" points="1409.69,-252 1224.69,-252 1224.69,-216 1415.69,-216 1415.69,-246 1409.69,-252"/>
<polyline fill="none" stroke="black" points="1409.69,-252 1409.69,-246 "/>
<polyline fill="none" stroke="black" points="1415.69,-246 1409.69,-246 "/>
<text text-anchor="middle" x="1320.19" y="-230.3" font-family="Times,serif" font-size="14.00">output.splat_example_public_ip</text>
</g>
<!-- [root] output.splat_example_public_ip&#45;&gt;[root] aws_instance.instance2 -->
<g id="edge32" class="edge">
<title>[root] output.splat_example_public_ip&#45;&gt;[root] aws_instance.instance2</title>
<path fill="none" stroke="black" d="M1309.06,-215.7C1303.83,-207.56 1297.49,-197.69 1291.71,-188.7"/>
<polygon fill="black" stroke="black" points="1294.54,-186.62 1286.18,-180.1 1288.65,-190.41 1294.54,-186.62"/>
</g>
<!-- [root] var.az -->
<g id="node17" class="node">
<title>[root] var.az</title>
<polygon fill="none" stroke="black" points="206.19,-252 158.19,-252 158.19,-216 212.19,-216 212.19,-246 206.19,-252"/>
<polyline fill="none" stroke="black" points="206.19,-252 206.19,-246 "/>
<polyline fill="none" stroke="black" points="212.19,-246 206.19,-246 "/>
<text text-anchor="middle" x="185.19" y="-230.3" font-family="Times,serif" font-size="14.00">var.az</text>
</g>
<!-- [root] var.instance_security_group_name -->
<g id="node18" class="node">
<title>[root] var.instance_security_group_name</title>
<polygon fill="none" stroke="black" points="430.19,-252 230.19,-252 230.19,-216 436.19,-216 436.19,-246 430.19,-252"/>
<polyline fill="none" stroke="black" points="430.19,-252 430.19,-246 "/>
<polyline fill="none" stroke="black" points="436.19,-246 430.19,-246 "/>
<text text-anchor="middle" x="333.19" y="-230.3" font-family="Times,serif" font-size="14.00">var.instance_security_group_name</text>
</g>
<!-- [root] var.server_port -->
<g id="node20" class="node">
<title>[root] var.server_port</title>
<polygon fill="none" stroke="black" points="546.19,-252 454.19,-252 454.19,-216 552.19,-216 552.19,-246 546.19,-252"/>
<polyline fill="none" stroke="black" points="546.19,-252 546.19,-246 "/>
<polyline fill="none" stroke="black" points="552.19,-246 546.19,-246 "/>
<text text-anchor="middle" x="503.19" y="-230.3" font-family="Times,serif" font-size="14.00">var.server_port</text>
</g>
<!-- [root] var.server_ssh -->
<g id="node21" class="node">
<title>[root] var.server_ssh</title>
<polygon fill="none" stroke="black" points="658.19,-252 570.19,-252 570.19,-216 664.19,-216 664.19,-246 658.19,-252"/>
<polyline fill="none" stroke="black" points="658.19,-252 658.19,-246 "/>
<polyline fill="none" stroke="black" points="664.19,-246 658.19,-246 "/>
<text text-anchor="middle" x="617.19" y="-230.3" font-family="Times,serif" font-size="14.00">var.server_ssh</text>
</g>
<!-- [root] var.user_data -->
<g id="node24" class="node">
<title>[root] var.user_data</title>
<polygon fill="none" stroke="black" points="765.69,-252 682.69,-252 682.69,-216 771.69,-216 771.69,-246 765.69,-252"/>
<polyline fill="none" stroke="black" points="765.69,-252 765.69,-246 "/>
<polyline fill="none" stroke="black" points="771.69,-246 765.69,-246 "/>
<text text-anchor="middle" x="727.19" y="-230.3" font-family="Times,serif" font-size="14.00">var.user_data</text>
</g>
<!-- [root] meta.count&#45;boundary (EachMode fixup) -->
<g id="node25" class="node">
<title>[root] meta.count&#45;boundary (EachMode fixup)</title>
<ellipse fill="none" stroke="black" cx="842.19" cy="-306" rx="176.27" ry="18"/>
<text text-anchor="middle" x="842.19" y="-302.3" font-family="Times,serif" font-size="14.00">[root] meta.count&#45;boundary (EachMode fixup)</text>
</g>
<!-- [root] meta.count&#45;boundary (EachMode fixup)&#45;&gt;[root] aws_iam_user.user -->
<g id="edge16" class="edge">
<title>[root] meta.count&#45;boundary (EachMode fixup)&#45;&gt;[root] aws_iam_user.user</title>
<path fill="none" stroke="black" d="M1015.9,-302.89C1256.67,-298.72 1669.16,-286.57 1729.19,-252 1753.04,-238.26 1769.07,-210.52 1778.33,-189.64"/>
<polygon fill="black" stroke="black" points="1781.6,-190.89 1782.22,-180.32 1775.14,-188.2 1781.6,-190.89"/>
</g>
<!-- [root] meta.count&#45;boundary (EachMode fixup)&#45;&gt;[root] aws_instance.instance -->
<g id="edge17" class="edge">
<title>[root] meta.count&#45;boundary (EachMode fixup)&#45;&gt;[root] aws_instance.instance</title>
<path fill="none" stroke="black" d="M1010.01,-300.53C1171.75,-294.53 1396.19,-281.03 1425.19,-252 1440.99,-236.18 1441.54,-209.97 1438.99,-190.08"/>
<polygon fill="black" stroke="black" points="1442.43,-189.39 1437.4,-180.07 1435.52,-190.49 1442.43,-189.39"/>
</g>
<!-- [root] meta.count&#45;boundary (EachMode fixup)&#45;&gt;[root] data.aws_availability_zones.azs -->
<g id="edge18" class="edge">
<title>[root] meta.count&#45;boundary (EachMode fixup)&#45;&gt;[root] data.aws_availability_zones.azs</title>
<path fill="none" stroke="black" d="M1006.85,-299.55C1157.29,-292.95 1367.86,-279.14 1446.19,-252 1473.79,-242.44 1475.65,-230.2 1501.19,-216 1521.77,-204.56 1545.26,-193.34 1565.54,-184.2"/>
<polygon fill="black" stroke="black" points="1567.21,-187.29 1574.92,-180.02 1564.36,-180.9 1567.21,-187.29"/>
</g>
<!-- [root] meta.count&#45;boundary (EachMode fixup)&#45;&gt;[root] local.ingress_config -->
<g id="edge19" class="edge">
<title>[root] meta.count&#45;boundary (EachMode fixup)&#45;&gt;[root] local.ingress_config</title>
<path fill="none" stroke="black" d="M910.39,-289.38C953.76,-279.43 1011.36,-266.17 1071.33,-252.19"/>
<polygon fill="black" stroke="black" points="1072.42,-255.53 1081.36,-249.85 1070.83,-248.72 1072.42,-255.53"/>
</g>
<!-- [root] meta.count&#45;boundary (EachMode fixup)&#45;&gt;[root] output.echo -->
<g id="edge20" class="edge">
<title>[root] meta.count&#45;boundary (EachMode fixup)&#45;&gt;[root] output.echo</title>
<path fill="none" stroke="black" d="M685.69,-297.72C518.52,-289.13 263.45,-273.5 150.19,-251.83"/>
<polygon fill="black" stroke="black" points="150.83,-248.38 140.33,-249.85 149.45,-255.25 150.83,-248.38"/>
</g>
<!-- [root] meta.count&#45;boundary (EachMode fixup)&#45;&gt;[root] output.echo_foo -->
<g id="edge21" class="edge">
<title>[root] meta.count&#45;boundary (EachMode fixup)&#45;&gt;[root] output.echo_foo</title>
<path fill="none" stroke="black" d="M842.19,-287.7C842.19,-279.98 842.19,-270.71 842.19,-262.11"/>
<polygon fill="black" stroke="black" points="845.69,-262.1 842.19,-252.1 838.69,-262.1 845.69,-262.1"/>
</g>
<!-- [root] meta.count&#45;boundary (EachMode fixup)&#45;&gt;[root] output.splat_example_id -->
<g id="edge22" class="edge">
<title>[root] meta.count&#45;boundary (EachMode fixup)&#45;&gt;[root] output.splat_example_id</title>
<path fill="none" stroke="black" d="M877.16,-288.23C897,-278.72 922.04,-266.71 943.32,-256.51"/>
<polygon fill="black" stroke="black" points="944.98,-259.6 952.49,-252.12 941.96,-253.28 944.98,-259.6"/>
</g>
<!-- [root] meta.count&#45;boundary (EachMode fixup)&#45;&gt;[root] output.splat_example_public_ip -->
<g id="edge23" class="edge">
<title>[root] meta.count&#45;boundary (EachMode fixup)&#45;&gt;[root] output.splat_example_public_ip</title>
<path fill="none" stroke="black" d="M943.47,-291.24C1016.26,-281.21 1117.02,-267.05 1214.41,-252.26"/>
<polygon fill="black" stroke="black" points="1215.07,-255.7 1224.43,-250.73 1214.02,-248.78 1215.07,-255.7"/>
</g>
<!-- [root] meta.count&#45;boundary (EachMode fixup)&#45;&gt;[root] var.az -->
<g id="edge24" class="edge">
<title>[root] meta.count&#45;boundary (EachMode fixup)&#45;&gt;[root] var.az</title>
<path fill="none" stroke="black" d="M684.57,-297.92C535.06,-290.1 320.26,-275.69 222.02,-251.56"/>
<polygon fill="black" stroke="black" points="222.88,-248.17 212.32,-249.04 221.12,-254.94 222.88,-248.17"/>
</g>
<!-- [root] meta.count&#45;boundary (EachMode fixup)&#45;&gt;[root] var.instance_security_group_name -->
<g id="edge25" class="edge">
<title>[root] meta.count&#45;boundary (EachMode fixup)&#45;&gt;[root] var.instance_security_group_name</title>
<path fill="none" stroke="black" d="M737.22,-291.51C659.65,-281.41 551.17,-267.05 446.44,-252.17"/>
<polygon fill="black" stroke="black" points="446.71,-248.67 436.31,-250.72 445.72,-255.6 446.71,-248.67"/>
</g>
<!-- [root] meta.count&#45;boundary (EachMode fixup)&#45;&gt;[root] var.server_port -->
<g id="edge26" class="edge">
<title>[root] meta.count&#45;boundary (EachMode fixup)&#45;&gt;[root] var.server_port</title>
<path fill="none" stroke="black" d="M752.81,-290.46C699.84,-281.3 631.27,-268.49 562.21,-252.13"/>
<polygon fill="black" stroke="black" points="563,-248.72 552.46,-249.8 561.37,-255.53 563,-248.72"/>
</g>
<!-- [root] meta.count&#45;boundary (EachMode fixup)&#45;&gt;[root] var.server_ssh -->
<g id="edge27" class="edge">
<title>[root] meta.count&#45;boundary (EachMode fixup)&#45;&gt;[root] var.server_ssh</title>
<path fill="none" stroke="black" d="M790,-288.76C755.35,-277.98 709.87,-263.83 674.26,-252.75"/>
<polygon fill="black" stroke="black" points="675.08,-249.35 664.49,-249.72 673,-256.03 675.08,-249.35"/>
</g>
<!-- [root] meta.count&#45;boundary (EachMode fixup)&#45;&gt;[root] var.user_data -->
<g id="edge28" class="edge">
<title>[root] meta.count&#45;boundary (EachMode fixup)&#45;&gt;[root] var.user_data</title>
<path fill="none" stroke="black" d="M814.35,-288.05C799.21,-278.84 780.28,-267.32 763.94,-257.37"/>
<polygon fill="black" stroke="black" points="765.53,-254.24 755.17,-252.03 761.89,-260.22 765.53,-254.24"/>
</g>
<!-- [root] provider.aws (close) -->
<g id="node26" class="node">
<title>[root] provider.aws (close)</title>
<ellipse fill="none" stroke="black" cx="1615.19" cy="-234" rx="104.78" ry="18"/>
<text text-anchor="middle" x="1615.19" y="-230.3" font-family="Times,serif" font-size="14.00">[root] provider.aws (close)</text>
</g>
<!-- [root] provider.aws (close)&#45;&gt;[root] aws_iam_user.user -->
<g id="edge33" class="edge">
<title>[root] provider.aws (close)&#45;&gt;[root] aws_iam_user.user</title>
<path fill="none" stroke="black" d="M1654.44,-217.12C1678.77,-207.27 1710.29,-194.52 1736.62,-183.86"/>
<polygon fill="black" stroke="black" points="1738.11,-187.04 1746.06,-180.04 1735.48,-180.55 1738.11,-187.04"/>
</g>
<!-- [root] provider.aws (close)&#45;&gt;[root] aws_instance.instance -->
<g id="edge34" class="edge">
<title>[root] provider.aws (close)&#45;&gt;[root] aws_instance.instance</title>
<path fill="none" stroke="black" d="M1574.34,-217.29C1548.56,-207.37 1514.97,-194.45 1487.02,-183.71"/>
<polygon fill="black" stroke="black" points="1487.99,-180.33 1477.4,-180 1485.47,-186.86 1487.99,-180.33"/>
</g>
<!-- [root] provider.aws (close)&#45;&gt;[root] aws_instance.instance2 -->
<g id="edge35" class="edge">
<title>[root] provider.aws (close)&#45;&gt;[root] aws_instance.instance2</title>
<path fill="none" stroke="black" d="M1550.24,-219.8C1500.2,-209.61 1429,-195.07 1356.91,-180.15"/>
<polygon fill="black" stroke="black" points="1357.24,-176.64 1346.74,-178.04 1355.82,-183.49 1357.24,-176.64"/>
</g>
<!-- [root] provider.aws (close)&#45;&gt;[root] data.aws_availability_zones.azs -->
<g id="edge36" class="edge">
<title>[root] provider.aws (close)&#45;&gt;[root] data.aws_availability_zones.azs</title>
<path fill="none" stroke="black" d="M1615.19,-215.7C1615.19,-207.98 1615.19,-198.71 1615.19,-190.11"/>
<polygon fill="black" stroke="black" points="1618.69,-190.1 1615.19,-180.1 1611.69,-190.1 1618.69,-190.1"/>
</g>
<!-- [root] provider.external (close) -->
<g id="node27" class="node">
<title>[root] provider.external (close)</title>
<ellipse fill="none" stroke="black" cx="280.19" cy="-306" rx="119.68" ry="18"/>
<text text-anchor="middle" x="280.19" y="-302.3" font-family="Times,serif" font-size="14.00">[root] provider.external (close)</text>
</g>
<!-- [root] provider.external (close)&#45;&gt;[root] data.external.echo -->
<g id="edge37" class="edge">
<title>[root] provider.external (close)&#45;&gt;[root] data.external.echo</title>
<path fill="none" stroke="black" d="M185.33,-294.94C130.15,-286.92 68.2,-273.4 51.19,-252 35.2,-231.89 53.27,-205.85 71.82,-187.14"/>
<polygon fill="black" stroke="black" points="74.36,-189.55 79.15,-180.11 69.51,-184.5 74.36,-189.55"/>
</g>
<!-- [root] root -->
<g id="node28" class="node">
<title>[root] root</title>
<ellipse fill="none" stroke="black" cx="842.19" cy="-378" rx="47.39" ry="18"/>
<text text-anchor="middle" x="842.19" y="-374.3" font-family="Times,serif" font-size="14.00">[root] root</text>
</g>
<!-- [root] root&#45;&gt;[root] meta.count&#45;boundary (EachMode fixup) -->
<g id="edge38" class="edge">
<title>[root] root&#45;&gt;[root] meta.count&#45;boundary (EachMode fixup)</title>
<path fill="none" stroke="black" d="M842.19,-359.7C842.19,-351.98 842.19,-342.71 842.19,-334.11"/>
<polygon fill="black" stroke="black" points="845.69,-334.1 842.19,-324.1 838.69,-334.1 845.69,-334.1"/>
</g>
<!-- [root] root&#45;&gt;[root] provider.aws (close) -->
<g id="edge39" class="edge">
<title>[root] root&#45;&gt;[root] provider.aws (close)</title>
<path fill="none" stroke="black" d="M884.02,-369.32C1007.94,-346.55 1374.54,-279.21 1536.62,-249.43"/>
<polygon fill="black" stroke="black" points="1537.32,-252.86 1546.52,-247.61 1536.06,-245.98 1537.32,-252.86"/>
</g>
<!-- [root] root&#45;&gt;[root] provider.external (close) -->
<g id="edge40" class="edge">
<title>[root] root&#45;&gt;[root] provider.external (close)</title>
<path fill="none" stroke="black" d="M797.62,-371.45C707.66,-360.24 502.47,-334.69 379.22,-319.34"/>
<polygon fill="black" stroke="black" points="379.38,-315.83 369.03,-318.07 378.52,-322.77 379.38,-315.83"/>
</g>
</g>
</svg>
