<?xml version="1.0" encoding="UTF-8" standalone="no"?>
<!DOCTYPE svg PUBLIC "-//W3C//DTD SVG 1.1//EN"
 "http://www.w3.org/Graphics/SVG/1.1/DTD/svg11.dtd">
<!-- Generated by graphviz version 2.44.1 (20200629.0846)
 -->
<!-- Pages: 1 -->
<svg width="1419pt" height="332pt"
 viewBox="0.00 0.00 1418.50 332.00" xmlns="http://www.w3.org/2000/svg" xmlns:xlink="http://www.w3.org/1999/xlink">
<g id="graph0" class="graph" transform="scale(1 1) rotate(0) translate(4 328)">
<polygon fill="white" stroke="transparent" points="-4,4 -4,-328 1414.5,-328 1414.5,4 -4,4"/>
<!-- [root] aws_iam_user.user -->
<g id="node1" class="node">
<title>[root] aws_iam_user.user</title>
<polygon fill="none" stroke="black" points="328,-180 208,-180 208,-144 328,-144 328,-180"/>
<text text-anchor="middle" x="268" y="-158.3" font-family="Times,serif" font-size="14.00">aws_iam_user.user</text>
</g>
<!-- [root] provider.aws -->
<g id="node10" class="node">
<title>[root] provider.aws</title>
<polygon fill="none" stroke="black" points="194,-36 114.9,-18 194,0 273.1,-18 194,-36"/>
<text text-anchor="middle" x="194" y="-14.3" font-family="Times,serif" font-size="14.00">provider.aws</text>
</g>
<!-- [root] aws_iam_user.user&#45;&gt;[root] provider.aws -->
<g id="edge1" class="edge">
<title>[root] aws_iam_user.user&#45;&gt;[root] provider.aws</title>
<path fill="none" stroke="black" d="M244.47,-143.8C233.3,-134.42 220.73,-121.91 213,-108 202.42,-88.95 197.72,-64.59 195.64,-46.18"/>
<polygon fill="black" stroke="black" points="199.12,-45.73 194.7,-36.1 192.15,-46.39 199.12,-45.73"/>
</g>
<!-- [root] var.user -->
<g id="node18" class="node">
<title>[root] var.user</title>
<polygon fill="none" stroke="black" points="159.5,-108 106.5,-108 106.5,-72 165.5,-72 165.5,-102 159.5,-108"/>
<polyline fill="none" stroke="black" points="159.5,-108 159.5,-102 "/>
<polyline fill="none" stroke="black" points="165.5,-102 159.5,-102 "/>
<text text-anchor="middle" x="136" y="-86.3" font-family="Times,serif" font-size="14.00">var.user</text>
</g>
<!-- [root] aws_iam_user.user&#45;&gt;[root] var.user -->
<g id="edge2" class="edge">
<title>[root] aws_iam_user.user&#45;&gt;[root] var.user</title>
<path fill="none" stroke="black" d="M235.71,-143.88C217.26,-134.09 194.01,-121.76 174.6,-111.47"/>
<polygon fill="black" stroke="black" points="176.17,-108.34 165.7,-106.75 172.9,-114.53 176.17,-108.34"/>
</g>
<!-- [root] aws_instance.instance -->
<g id="node2" class="node">
<title>[root] aws_instance.instance</title>
<polygon fill="none" stroke="black" points="500.5,-180 363.5,-180 363.5,-144 500.5,-144 500.5,-180"/>
<text text-anchor="middle" x="432" y="-158.3" font-family="Times,serif" font-size="14.00">aws_instance.instance</text>
</g>
<!-- [root] aws_security_group.fw -->
<g id="node3" class="node">
<title>[root] aws_security_group.fw</title>
<polygon fill="none" stroke="black" points="731.5,-108 588.5,-108 588.5,-72 731.5,-72 731.5,-108"/>
<text text-anchor="middle" x="660" y="-86.3" font-family="Times,serif" font-size="14.00">aws_security_group.fw</text>
</g>
<!-- [root] aws_instance.instance&#45;&gt;[root] aws_security_group.fw -->
<g id="edge3" class="edge">
<title>[root] aws_instance.instance&#45;&gt;[root] aws_security_group.fw</title>
<path fill="none" stroke="black" d="M487.48,-143.97C519.76,-134.06 560.61,-121.51 594.46,-111.12"/>
<polygon fill="black" stroke="black" points="595.74,-114.39 604.27,-108.11 593.68,-107.7 595.74,-114.39"/>
</g>
<!-- [root] data.aws_ami.amazonlinux -->
<g id="node4" class="node">
<title>[root] data.aws_ami.amazonlinux</title>
<polygon fill="none" stroke="black" points="388,-108 222,-108 222,-72 388,-72 388,-108"/>
<text text-anchor="middle" x="305" y="-86.3" font-family="Times,serif" font-size="14.00">data.aws_ami.amazonlinux</text>
</g>
<!-- [root] aws_instance.instance&#45;&gt;[root] data.aws_ami.amazonlinux -->
<g id="edge4" class="edge">
<title>[root] aws_instance.instance&#45;&gt;[root] data.aws_ami.amazonlinux</title>
<path fill="none" stroke="black" d="M400.93,-143.88C384.17,-134.64 363.29,-123.13 345.3,-113.21"/>
<polygon fill="black" stroke="black" points="346.63,-109.95 336.19,-108.19 343.26,-116.08 346.63,-109.95"/>
</g>
<!-- [root] var.ohio_azs -->
<g id="node14" class="node">
<title>[root] var.ohio_azs</title>
<polygon fill="none" stroke="black" points="485.5,-108 406.5,-108 406.5,-72 491.5,-72 491.5,-102 485.5,-108"/>
<polyline fill="none" stroke="black" points="485.5,-108 485.5,-102 "/>
<polyline fill="none" stroke="black" points="491.5,-102 485.5,-102 "/>
<text text-anchor="middle" x="449" y="-86.3" font-family="Times,serif" font-size="14.00">var.ohio_azs</text>
</g>
<!-- [root] aws_instance.instance&#45;&gt;[root] var.ohio_azs -->
<g id="edge5" class="edge">
<title>[root] aws_instance.instance&#45;&gt;[root] var.ohio_azs</title>
<path fill="none" stroke="black" d="M436.2,-143.7C438.1,-135.9 440.38,-126.51 442.48,-117.83"/>
<polygon fill="black" stroke="black" points="445.89,-118.65 444.85,-108.1 439.08,-117 445.89,-118.65"/>
</g>
<!-- [root] var.type -->
<g id="node17" class="node">
<title>[root] var.type</title>
<polygon fill="none" stroke="black" points="564,-108 510,-108 510,-72 570,-72 570,-102 564,-108"/>
<polyline fill="none" stroke="black" points="564,-108 564,-102 "/>
<polyline fill="none" stroke="black" points="570,-102 564,-102 "/>
<text text-anchor="middle" x="540" y="-86.3" font-family="Times,serif" font-size="14.00">var.type</text>
</g>
<!-- [root] aws_instance.instance&#45;&gt;[root] var.type -->
<g id="edge6" class="edge">
<title>[root] aws_instance.instance&#45;&gt;[root] var.type</title>
<path fill="none" stroke="black" d="M458.42,-143.88C472.41,-134.81 489.78,-123.55 504.89,-113.76"/>
<polygon fill="black" stroke="black" points="506.99,-116.57 513.48,-108.19 503.18,-110.69 506.99,-116.57"/>
</g>
<!-- [root] local.ingress_config2 -->
<g id="node9" class="node">
<title>[root] local.ingress_config2</title>
<polygon fill="none" stroke="black" points="720,-36 594,-36 594,0 726,0 726,-30 720,-36"/>
<polyline fill="none" stroke="black" points="720,-36 720,-30 "/>
<polyline fill="none" stroke="black" points="726,-30 720,-30 "/>
<text text-anchor="middle" x="660" y="-14.3" font-family="Times,serif" font-size="14.00">local.ingress_config2</text>
</g>
<!-- [root] aws_security_group.fw&#45;&gt;[root] local.ingress_config2 -->
<g id="edge7" class="edge">
<title>[root] aws_security_group.fw&#45;&gt;[root] local.ingress_config2</title>
<path fill="none" stroke="black" d="M660,-71.7C660,-63.98 660,-54.71 660,-46.11"/>
<polygon fill="black" stroke="black" points="663.5,-46.1 660,-36.1 656.5,-46.1 663.5,-46.1"/>
</g>
<!-- [root] aws_security_group.fw&#45;&gt;[root] provider.aws -->
<g id="edge8" class="edge">
<title>[root] aws_security_group.fw&#45;&gt;[root] provider.aws</title>
<path fill="none" stroke="black" d="M588.07,-73.57C585.01,-73.02 581.98,-72.49 579,-72 447.81,-50.32 413.36,-56.62 282,-36 269.39,-34.02 255.82,-31.56 243.2,-29.14"/>
<polygon fill="black" stroke="black" points="243.81,-25.69 233.32,-27.21 242.47,-32.56 243.81,-25.69"/>
</g>
<!-- [root] local.datafilter -->
<g id="node7" class="node">
<title>[root] local.datafilter</title>
<polygon fill="none" stroke="black" points="380.5,-36 291.5,-36 291.5,0 386.5,0 386.5,-30 380.5,-36"/>
<polyline fill="none" stroke="black" points="380.5,-36 380.5,-30 "/>
<polyline fill="none" stroke="black" points="386.5,-30 380.5,-30 "/>
<text text-anchor="middle" x="339" y="-14.3" font-family="Times,serif" font-size="14.00">local.datafilter</text>
</g>
<!-- [root] data.aws_ami.amazonlinux&#45;&gt;[root] local.datafilter -->
<g id="edge9" class="edge">
<title>[root] data.aws_ami.amazonlinux&#45;&gt;[root] local.datafilter</title>
<path fill="none" stroke="black" d="M313.4,-71.7C317.27,-63.73 321.95,-54.1 326.24,-45.26"/>
<polygon fill="black" stroke="black" points="329.47,-46.63 330.69,-36.1 323.17,-43.57 329.47,-46.63"/>
</g>
<!-- [root] data.aws_ami.amazonlinux&#45;&gt;[root] provider.aws -->
<g id="edge10" class="edge">
<title>[root] data.aws_ami.amazonlinux&#45;&gt;[root] provider.aws</title>
<path fill="none" stroke="black" d="M277.85,-71.88C261.17,-61.36 239.82,-47.89 222.84,-37.19"/>
<polygon fill="black" stroke="black" points="224.24,-33.93 213.91,-31.56 220.5,-39.85 224.24,-33.93"/>
</g>
<!-- [root] data.aws_availability_zones.azs -->
<g id="node5" class="node">
<title>[root] data.aws_availability_zones.azs</title>
<polygon fill="none" stroke="black" points="190,-180 0,-180 0,-144 190,-144 190,-180"/>
<text text-anchor="middle" x="95" y="-158.3" font-family="Times,serif" font-size="14.00">data.aws_availability_zones.azs</text>
</g>
<!-- [root] data.aws_availability_zones.azs&#45;&gt;[root] provider.aws -->
<g id="edge11" class="edge">
<title>[root] data.aws_availability_zones.azs&#45;&gt;[root] provider.aws</title>
<path fill="none" stroke="black" d="M90.62,-143.86C86.78,-124.83 83.66,-93.92 97,-72 108.74,-52.7 130.2,-39.94 149.96,-31.79"/>
<polygon fill="black" stroke="black" points="151.38,-34.99 159.47,-28.15 148.87,-28.46 151.38,-34.99"/>
</g>
<!-- [root] data.external.echo -->
<g id="node6" class="node">
<title>[root] data.external.echo</title>
<polygon fill="none" stroke="black" points="635,-180 519,-180 519,-144 635,-144 635,-180"/>
<text text-anchor="middle" x="577" y="-158.3" font-family="Times,serif" font-size="14.00">data.external.echo</text>
</g>
<!-- [root] provider.external -->
<g id="node11" class="node">
<title>[root] provider.external</title>
<polygon fill="none" stroke="black" points="850,-108 749.62,-90 850,-72 950.38,-90 850,-108"/>
<text text-anchor="middle" x="850" y="-86.3" font-family="Times,serif" font-size="14.00">provider.external</text>
</g>
<!-- [root] data.external.echo&#45;&gt;[root] provider.external -->
<g id="edge12" class="edge">
<title>[root] data.external.echo&#45;&gt;[root] provider.external</title>
<path fill="none" stroke="black" d="M635.23,-146.07C684.54,-133.43 754.44,-115.5 800.94,-103.58"/>
<polygon fill="black" stroke="black" points="801.97,-106.93 810.78,-101.06 800.23,-100.15 801.97,-106.93"/>
</g>
<!-- [root] local.ingress_config -->
<g id="node8" class="node">
<title>[root] local.ingress_config</title>
<polygon fill="none" stroke="black" points="772.5,-180 653.5,-180 653.5,-144 778.5,-144 778.5,-174 772.5,-180"/>
<polyline fill="none" stroke="black" points="772.5,-180 772.5,-174 "/>
<polyline fill="none" stroke="black" points="778.5,-174 772.5,-174 "/>
<text text-anchor="middle" x="716" y="-158.3" font-family="Times,serif" font-size="14.00">local.ingress_config</text>
</g>
<!-- [root] var.az -->
<g id="node12" class="node">
<title>[root] var.az</title>
<polygon fill="none" stroke="black" points="845,-180 797,-180 797,-144 851,-144 851,-174 845,-180"/>
<polyline fill="none" stroke="black" points="845,-180 845,-174 "/>
<polyline fill="none" stroke="black" points="851,-174 845,-174 "/>
<text text-anchor="middle" x="824" y="-158.3" font-family="Times,serif" font-size="14.00">var.az</text>
</g>
<!-- [root] var.instance_security_group_name -->
<g id="node13" class="node">
<title>[root] var.instance_security_group_name</title>
<polygon fill="none" stroke="black" points="1069,-180 869,-180 869,-144 1075,-144 1075,-174 1069,-180"/>
<polyline fill="none" stroke="black" points="1069,-180 1069,-174 "/>
<polyline fill="none" stroke="black" points="1075,-174 1069,-174 "/>
<text text-anchor="middle" x="972" y="-158.3" font-family="Times,serif" font-size="14.00">var.instance_security_group_name</text>
</g>
<!-- [root] var.server_port -->
<g id="node15" class="node">
<title>[root] var.server_port</title>
<polygon fill="none" stroke="black" points="1185,-180 1093,-180 1093,-144 1191,-144 1191,-174 1185,-180"/>
<polyline fill="none" stroke="black" points="1185,-180 1185,-174 "/>
<polyline fill="none" stroke="black" points="1191,-174 1185,-174 "/>
<text text-anchor="middle" x="1142" y="-158.3" font-family="Times,serif" font-size="14.00">var.server_port</text>
</g>
<!-- [root] var.server_ssh -->
<g id="node16" class="node">
<title>[root] var.server_ssh</title>
<polygon fill="none" stroke="black" points="1297,-180 1209,-180 1209,-144 1303,-144 1303,-174 1297,-180"/>
<polyline fill="none" stroke="black" points="1297,-180 1297,-174 "/>
<polyline fill="none" stroke="black" points="1303,-174 1297,-174 "/>
<text text-anchor="middle" x="1256" y="-158.3" font-family="Times,serif" font-size="14.00">var.server_ssh</text>
</g>
<!-- [root] var.user_data -->
<g id="node19" class="node">
<title>[root] var.user_data</title>
<polygon fill="none" stroke="black" points="1404.5,-180 1321.5,-180 1321.5,-144 1410.5,-144 1410.5,-174 1404.5,-180"/>
<polyline fill="none" stroke="black" points="1404.5,-180 1404.5,-174 "/>
<polyline fill="none" stroke="black" points="1410.5,-174 1404.5,-174 "/>
<text text-anchor="middle" x="1366" y="-158.3" font-family="Times,serif" font-size="14.00">var.user_data</text>
</g>
<!-- [root] meta.count&#45;boundary (EachMode fixup) -->
<g id="node20" class="node">
<title>[root] meta.count&#45;boundary (EachMode fixup)</title>
<ellipse fill="none" stroke="black" cx="824" cy="-234" rx="176.27" ry="18"/>
<text text-anchor="middle" x="824" y="-230.3" font-family="Times,serif" font-size="14.00">[root] meta.count&#45;boundary (EachMode fixup)</text>
</g>
<!-- [root] meta.count&#45;boundary (EachMode fixup)&#45;&gt;[root] aws_iam_user.user -->
<g id="edge13" class="edge">
<title>[root] meta.count&#45;boundary (EachMode fixup)&#45;&gt;[root] aws_iam_user.user</title>
<path fill="none" stroke="black" d="M697.23,-221.46C602.65,-212.18 470.41,-197.77 355,-180 349.58,-179.17 343.99,-178.23 338.37,-177.25"/>
<polygon fill="black" stroke="black" points="338.73,-173.76 328.26,-175.43 337.48,-180.65 338.73,-173.76"/>
</g>
<!-- [root] meta.count&#45;boundary (EachMode fixup)&#45;&gt;[root] aws_instance.instance -->
<g id="edge14" class="edge">
<title>[root] meta.count&#45;boundary (EachMode fixup)&#45;&gt;[root] aws_instance.instance</title>
<path fill="none" stroke="black" d="M731.74,-218.61C671.63,-208.95 591.28,-195.53 511.15,-180.17"/>
<polygon fill="black" stroke="black" points="511.35,-176.65 500.87,-178.19 510.02,-183.52 511.35,-176.65"/>
</g>
<!-- [root] meta.count&#45;boundary (EachMode fixup)&#45;&gt;[root] data.aws_availability_zones.azs -->
<g id="edge15" class="edge">
<title>[root] meta.count&#45;boundary (EachMode fixup)&#45;&gt;[root] data.aws_availability_zones.azs</title>
<path fill="none" stroke="black" d="M698.63,-221.31C678.68,-219.5 658.28,-217.67 639,-216 446.77,-199.3 395.45,-203.69 200.18,-180.09"/>
<polygon fill="black" stroke="black" points="200.52,-176.61 190.17,-178.87 199.67,-183.55 200.52,-176.61"/>
</g>
<!-- [root] meta.count&#45;boundary (EachMode fixup)&#45;&gt;[root] data.external.echo -->
<g id="edge16" class="edge">
<title>[root] meta.count&#45;boundary (EachMode fixup)&#45;&gt;[root] data.external.echo</title>
<path fill="none" stroke="black" d="M767.33,-216.94C730.99,-206.64 683.59,-193.21 645.18,-182.32"/>
<polygon fill="black" stroke="black" points="645.69,-178.83 635.12,-179.47 643.78,-185.56 645.69,-178.83"/>
</g>
<!-- [root] meta.count&#45;boundary (EachMode fixup)&#45;&gt;[root] local.ingress_config -->
<g id="edge17" class="edge">
<title>[root] meta.count&#45;boundary (EachMode fixup)&#45;&gt;[root] local.ingress_config</title>
<path fill="none" stroke="black" d="M797.86,-216.05C783.77,-206.92 766.19,-195.53 750.94,-185.65"/>
<polygon fill="black" stroke="black" points="752.57,-182.53 742.28,-180.03 748.77,-188.41 752.57,-182.53"/>
</g>
<!-- [root] meta.count&#45;boundary (EachMode fixup)&#45;&gt;[root] var.az -->
<g id="edge18" class="edge">
<title>[root] meta.count&#45;boundary (EachMode fixup)&#45;&gt;[root] var.az</title>
<path fill="none" stroke="black" d="M824,-215.7C824,-207.98 824,-198.71 824,-190.11"/>
<polygon fill="black" stroke="black" points="827.5,-190.1 824,-180.1 820.5,-190.1 827.5,-190.1"/>
</g>
<!-- [root] meta.count&#45;boundary (EachMode fixup)&#45;&gt;[root] var.instance_security_group_name -->
<g id="edge19" class="edge">
<title>[root] meta.count&#45;boundary (EachMode fixup)&#45;&gt;[root] var.instance_security_group_name</title>
<path fill="none" stroke="black" d="M859.45,-216.23C879.56,-206.72 904.95,-194.71 926.52,-184.51"/>
<polygon fill="black" stroke="black" points="928.27,-187.56 935.81,-180.12 925.28,-181.23 928.27,-187.56"/>
</g>
<!-- [root] meta.count&#45;boundary (EachMode fixup)&#45;&gt;[root] var.server_port -->
<g id="edge20" class="edge">
<title>[root] meta.count&#45;boundary (EachMode fixup)&#45;&gt;[root] var.server_port</title>
<path fill="none" stroke="black" d="M906.37,-218.04C955.19,-208.75 1018.45,-195.96 1082.8,-180.2"/>
<polygon fill="black" stroke="black" points="1083.85,-183.55 1092.72,-177.75 1082.17,-176.75 1083.85,-183.55"/>
</g>
<!-- [root] meta.count&#45;boundary (EachMode fixup)&#45;&gt;[root] var.server_ssh -->
<g id="edge21" class="edge">
<title>[root] meta.count&#45;boundary (EachMode fixup)&#45;&gt;[root] var.server_ssh</title>
<path fill="none" stroke="black" d="M944.65,-220.8C1016.22,-212.42 1108.74,-199.6 1198.93,-180.06"/>
<polygon fill="black" stroke="black" points="1199.76,-183.46 1208.78,-177.9 1198.26,-176.62 1199.76,-183.46"/>
</g>
<!-- [root] meta.count&#45;boundary (EachMode fixup)&#45;&gt;[root] var.user_data -->
<g id="edge22" class="edge">
<title>[root] meta.count&#45;boundary (EachMode fixup)&#45;&gt;[root] var.user_data</title>
<path fill="none" stroke="black" d="M973.35,-224.43C1067.91,-217.18 1192.67,-204.26 1311.39,-179.87"/>
<polygon fill="black" stroke="black" points="1312.32,-183.26 1321.39,-177.79 1310.89,-176.4 1312.32,-183.26"/>
</g>
<!-- [root] provider.aws (close) -->
<g id="node21" class="node">
<title>[root] provider.aws (close)</title>
<ellipse fill="none" stroke="black" cx="268" cy="-234" rx="104.78" ry="18"/>
<text text-anchor="middle" x="268" y="-230.3" font-family="Times,serif" font-size="14.00">[root] provider.aws (close)</text>
</g>
<!-- [root] provider.aws (close)&#45;&gt;[root] aws_iam_user.user -->
<g id="edge23" class="edge">
<title>[root] provider.aws (close)&#45;&gt;[root] aws_iam_user.user</title>
<path fill="none" stroke="black" d="M268,-215.7C268,-207.98 268,-198.71 268,-190.11"/>
<polygon fill="black" stroke="black" points="271.5,-190.1 268,-180.1 264.5,-190.1 271.5,-190.1"/>
</g>
<!-- [root] provider.aws (close)&#45;&gt;[root] aws_instance.instance -->
<g id="edge24" class="edge">
<title>[root] provider.aws (close)&#45;&gt;[root] aws_instance.instance</title>
<path fill="none" stroke="black" d="M305.21,-217.12C328.18,-207.32 357.89,-194.63 382.79,-184.01"/>
<polygon fill="black" stroke="black" points="384.24,-187.19 392.07,-180.04 381.5,-180.75 384.24,-187.19"/>
</g>
<!-- [root] provider.aws (close)&#45;&gt;[root] data.aws_availability_zones.azs -->
<g id="edge25" class="edge">
<title>[root] provider.aws (close)&#45;&gt;[root] data.aws_availability_zones.azs</title>
<path fill="none" stroke="black" d="M228.74,-217.12C204.42,-207.27 172.9,-194.52 146.57,-183.86"/>
<polygon fill="black" stroke="black" points="147.71,-180.55 137.12,-180.04 145.08,-187.04 147.71,-180.55"/>
</g>
<!-- [root] provider.external (close) -->
<g id="node22" class="node">
<title>[root] provider.external (close)</title>
<ellipse fill="none" stroke="black" cx="510" cy="-234" rx="119.68" ry="18"/>
<text text-anchor="middle" x="510" y="-230.3" font-family="Times,serif" font-size="14.00">[root] provider.external (close)</text>
</g>
<!-- [root] provider.external (close)&#45;&gt;[root] data.external.echo -->
<g id="edge26" class="edge">
<title>[root] provider.external (close)&#45;&gt;[root] data.external.echo</title>
<path fill="none" stroke="black" d="M526.22,-216.05C534.41,-207.5 544.5,-196.96 553.52,-187.54"/>
<polygon fill="black" stroke="black" points="556.08,-189.92 560.47,-180.28 551.02,-185.08 556.08,-189.92"/>
</g>
<!-- [root] root -->
<g id="node23" class="node">
<title>[root] root</title>
<ellipse fill="none" stroke="black" cx="510" cy="-306" rx="47.39" ry="18"/>
<text text-anchor="middle" x="510" y="-302.3" font-family="Times,serif" font-size="14.00">[root] root</text>
</g>
<!-- [root] root&#45;&gt;[root] meta.count&#45;boundary (EachMode fixup) -->
<g id="edge27" class="edge">
<title>[root] root&#45;&gt;[root] meta.count&#45;boundary (EachMode fixup)</title>
<path fill="none" stroke="black" d="M549.77,-296.13C598.48,-285.27 682.19,-266.61 744.34,-252.76"/>
<polygon fill="black" stroke="black" points="745.12,-256.17 754.12,-250.58 743.6,-249.34 745.12,-256.17"/>
</g>
<!-- [root] root&#45;&gt;[root] provider.aws (close) -->
<g id="edge28" class="edge">
<title>[root] root&#45;&gt;[root] provider.aws (close)</title>
<path fill="none" stroke="black" d="M473.51,-294.44C435.25,-283.38 374.48,-265.8 328.93,-252.62"/>
<polygon fill="black" stroke="black" points="329.74,-249.22 319.16,-249.8 327.8,-255.94 329.74,-249.22"/>
</g>
<!-- [root] root&#45;&gt;[root] provider.external (close) -->
<g id="edge29" class="edge">
<title>[root] root&#45;&gt;[root] provider.external (close)</title>
<path fill="none" stroke="black" d="M510,-287.7C510,-279.98 510,-270.71 510,-262.11"/>
<polygon fill="black" stroke="black" points="513.5,-262.1 510,-252.1 506.5,-262.1 513.5,-262.1"/>
</g>
</g>
</svg>
